<svg width="190" height="46" viewBox="0 0 190 46" fill="none" xmlns="http://www.w3.org/2000/svg">
<path d="M23 4C33.5 4 42.5 12.5 45.5 22.7C45.7 23.2 45.7 23.8 45.5 24.3C42.5 33.5 33.5 42 23 42C12.5 42 3.5 33.5 0.5 24.3C0.3 23.8 0.3 23.2 0.5 22.7C3.5 12.5 12.5 4 23 4Z" fill="#5F6FFF" fill-opacity="0.12"/>
<path d="M23 6.5C32.3 6.5 40.2 14 43 22.8C43.1 23.1 43.1 23.5 43 23.8C40.2 32.5 32.3 39.5 23 39.5C13.7 39.5 5.8 32.5 3 23.8C2.9 23.5 2.9 23.1 3 22.8C5.8 14 13.7 6.5 23 6.5Z" stroke="#5F6FFF" stroke-width="2.6"/>
<circle cx="23" cy="23" r="9.5" fill="#5F6FFF"/>
<circle cx="23" cy="23" r="9.5" fill="none" stroke="white" stroke-width="0"/>
<path d="M23 17.2V28.8M17.2 23H28.8" stroke="white" stroke-width="2.6" stroke-linecap="round"/>
<text x="59" y="32" font-family="Outfit, sans-serif" font-size="28" font-weight="600" fill="#000B6D">Medivue</text>
</svg>
